<?xml version="1.0" standalone="no"?>
<!DOCTYPE svg PUBLIC "-//W3C//DTD SVG 20010904//EN"
 "http://www.w3.org/TR/2001/REC-SVG-20010904/DTD/svg10.dtd">
<svg version="1.0" xmlns="http://www.w3.org/2000/svg"
 width="512.000000pt" height="512.000000pt" viewBox="0 0 512.000000 512.000000"
 preserveAspectRatio="xMidYMid meet">

<g transform="translate(0.000000,512.000000) scale(0.100000,-0.100000)"
fill="#000000" stroke="none">
<path d="M3067 4976 c-55 -21 -103 -61 -134 -114 -24 -40 -28 -58 -27 -117 1
-67 28 -146 593 -1695 325 -894 599 -1636 608 -1649 47 -71 120 -111 208 -111
144 0 248 104 247 245 -1 54 -63 231 -596 1694 -380 1042 -605 1645 -621 1667
-58 76 -188 114 -278 80z"/>
<path d="M4406 4358 c-23 -21 -202 -273 -227 -319 -14 -27 -2 -76 24 -94 29
-20 80 -19 105 3 11 9 67 86 126 171 116 168 125 193 81 236 -31 32 -76 32
-109 3z"/>
<path d="M4630 3554 c-197 -73 -216 -82 -229 -110 -16 -36 -14 -58 10 -88 15
-19 30 -26 55 -26 49 0 385 124 407 151 41 51 1 130 -65 128 -18 -1 -98 -26
-178 -55z"/>
<path d="M780 3116 c-275 -103 -340 -139 -477 -269 -267 -253 -365 -648 -251
-1007 122 -387 470 -657 883 -686 165 -12 266 9 567 118 l167 60 -10 27 c-18
45 -204 554 -439 1201 -126 343 -232 625 -236 626 -5 2 -97 -30 -204 -70z"/>
<path d="M4635 2865 c-32 -31 -32 -76 -2 -109 18 -20 60 -35 215 -76 107 -29
201 -49 212 -45 27 9 60 53 60 81 0 52 -34 71 -230 124 -102 27 -195 50 -208
50 -13 0 -34 -11 -47 -25z"/>
<path d="M2545 1495 c-184 -22 -335 -47 -335 -55 0 -4 46 -102 103 -219 l103
-212 62 41 c77 52 142 125 182 206 30 62 59 172 60 227 0 32 -3 32 -175 12z"/>
</g>
</svg>
